<svg id="Layer_1" data-name="Layer 1" xmlns="http://www.w3.org/2000/svg" viewBox="0 0 170.08 170.08"><defs><style>.cls-1{fill:#0dba6a;}.cls-2{fill:#fff;}</style></defs><title>logo_bb</title><path class="cls-1" d="M23.44,11.85C26,9.41,29.79,9.57,33.08,9.5c15.35.14,30.71-.2,46.06.19,12.12.55,25.62,5.84,30.46,17.85a45.68,45.68,0,0,1,1.76,5.73c1.27,6.94.67,14.41-2.95,20.59C106,58.37,102.09,61.72,98,64.6c6,2.93,11.77,7.08,14.92,13.19,6.47,12,5.43,27.75-2.91,38.58C102.15,126.76,88.93,132,76.15,132q-24.78,0-49.56,0c-1.83,0-3.67,0-5.5,0q0-55.74,0-111.46C21.15,17.56,21.2,14.13,23.44,11.85Zm24.14,21c0,7.74,0,15.47,0,23.21,8.16,0,16.32,0,24.48,0,4.43,0,9.39-1.86,11.34-6.15C85.2,45.6,85.14,40.12,82,36.51c-2.45-2.78-6.31-3.74-9.89-3.71Zm0,44.59v31.15c8.52,0,17.05,0,25.57,0,4.69,0,9.7-1.39,12.88-5.05,4.61-5.42,4.87-14,1-19.86-3-4.47-8.72-6.21-13.9-6.21C64.59,77.36,56.09,77.41,47.59,77.4Z"/><path class="cls-2" d="M109.6,27.54c9.67,1.38,19.6,4.76,26.22,12.31C147.12,53,146.56,74.61,134.24,87c17.49,12.39,19.31,39.74,6.38,56-9,11.78-24.05,17.42-38.53,17.55-19,0-38-.08-57,0-5-.1-10.16.47-15-1a11.52,11.52,0,0,1-8.18-8.76c-1.45-6.14-.54-12.51-.79-18.74,1.83,0,3.67,0,5.5,0,.1,5.14-.22,10.3.17,15.43.17,2.58,1.32,5.37,3.83,6.49s5.64,1.09,8.49,1.13c19.66-.08,39.31,0,59,0,14.12.79,29.36-3.84,38.23-15.4,8.32-10.56,9.58-25.93,3.65-37.89a28.05,28.05,0,0,0-13.28-12.91c-1.29-.29-2.43-1.61-.7-2.39a27.84,27.84,0,0,0,12.34-20c.84-8.44-1.3-17.59-7.36-23.78-5.14-5.4-12.4-8.05-19.57-9.42A45.68,45.68,0,0,0,109.6,27.54Z"/></svg>