<svg id="d985000a-1e79-4758-9e9e-e6c38a6a7bca" data-name="Слой 1" xmlns="http://www.w3.org/2000/svg" viewBox="0 0 409.6 382.29"><title>products-icon</title><path d="M27.3,211.63a6.83,6.83,0,0,0,6.83,6.83H58a6.83,6.83,0,0,0,0-13.65H34.13a6.83,6.83,0,0,0-6.83,6.82Zm0,0" style="fill:#fff"/><path d="M122.88,327.68A27.31,27.31,0,1,0,150.19,355a27.33,27.33,0,0,0-27.31-27.31Zm0,41A13.65,13.65,0,1,1,136.53,355a13.67,13.67,0,0,1-13.66,13.65Zm0,0" style="fill:#fff"/><path d="M54.61,170.67a6.82,6.82,0,0,0-6.82-6.83h-41a6.83,6.83,0,1,0,0,13.65h41a6.82,6.82,0,0,0,6.82-6.82Zm0,0" style="fill:#fff"/><path d="M68.27,245.76H20.48a6.83,6.83,0,1,0,0,13.65H68.27a6.83,6.83,0,1,0,0-13.65Zm0,0" style="fill:#fff"/><path d="M327.68,327.68A27.31,27.31,0,1,0,355,355a27.33,27.33,0,0,0-27.31-27.31Zm0,41A13.65,13.65,0,1,1,341.33,355a13.67,13.67,0,0,1-13.65,13.65Zm0,0" style="fill:#fff"/><path d="M100.69,157a6.82,6.82,0,0,0,6.82,6.83h47.41l4.1,41h-43a6.83,6.83,0,1,0,0,13.65h44.34l3.48,34.82a6.83,6.83,0,0,0,6.78,6.14,6,6,0,0,0,.69,0,6.83,6.83,0,0,0,6.11-7.48l-3.35-33.45h58v34.13a6.83,6.83,0,0,0,13.66,0V218.45h58l-3.35,33.45a6.83,6.83,0,0,0,6.11,7.48,6,6,0,0,0,.69,0,6.83,6.83,0,0,0,6.78-6.14l3.48-34.82h34.1a6.83,6.83,0,0,0,0-13.65H318.84l4.1-41h38.87a6.83,6.83,0,1,0,0-13.65H324.3l3.34-33.45a6.83,6.83,0,1,0-13.58-1.37l-3.48,34.82H245.76V116.06a6.83,6.83,0,0,0-13.66,0v34.13H167.29l-3.48-34.82a6.83,6.83,0,1,0-13.58,1.37l3.34,33.45h-46a6.82,6.82,0,0,0-6.82,6.82Zm145.07,6.83h63.45l-4.1,41H245.76Zm-13.66,0v41H172.75l-4.1-41Zm0,0" style="fill:#fff"/><path d="M408,84.37a6.83,6.83,0,0,0-5.24-2.45H95.57a6.83,6.83,0,1,0,0,13.65h299c-9.82,53.64-27.41,146.63-32.42,161.68-5.13,15.4-20.24,15.8-20.84,15.81H129.71c-13.44,0-19.28-7-20.8-9.23L68.16,26.15a5.06,5.06,0,0,0-.25-1C67.06,22.57,59,0,41,0H20.48C12.25,0,0,5.45,0,20.48S12.25,41,20.48,41H34.13a6.83,6.83,0,1,0,0-13.65H20.56c-3.16-.08-6.91-1.33-6.91-6.83s3.75-6.75,6.83-6.82H41C47.77,13.66,53.2,24.6,54.8,29L95.68,267.39a6.86,6.86,0,0,0,.61,1.9c.36.71,9,17.43,33.42,17.43H341.33c8.79,0,27.16-5.26,33.78-25.15C382,240.88,408.37,96.12,409.48,90a6.81,6.81,0,0,0-1.47-5.6Zm0,0" style="fill:#fff"/><path d="M348.16,300.38H157c-10.25,0-17.71,13.34-19.76,17.43a6.83,6.83,0,0,0,12.21,6.12c2.26-4.48,6.15-9.4,7.55-9.89H348.16a6.83,6.83,0,1,0,0-13.65Zm0,0" style="fill:#fff"/></svg>