<?xml version="1.0" standalone="no"?>
<!DOCTYPE svg PUBLIC "-//W3C//DTD SVG 20010904//EN"
 "http://www.w3.org/TR/2001/REC-SVG-20010904/DTD/svg10.dtd">
<svg version="1.0" xmlns="http://www.w3.org/2000/svg"
 width="16.000000pt" height="16.000000pt" viewBox="0 0 16.000000 16.000000"
 preserveAspectRatio="xMidYMid meet">
<metadata>
Created by potrace 1.11, written by Peter Selinger 2001-2013
</metadata>
<g transform="translate(0.000000,16.000000) scale(0.010458,-0.010458)"
fill="#000000" stroke="none">
<path d="M317 1520 c-141 -5 -150 -6 -168 -29 -23 -28 -21 41 -21 -732 0 -419
4 -629 11 -657 13 -48 48 -79 100 -88 42 -8 707 -9 767 -1 121 16 223 66 295
145 83 91 115 184 106 312 -6 94 -36 168 -97 234 l-42 45 25 33 c47 61 62 115
61 213 -1 67 -6 102 -22 136 -24 56 -73 113 -123 145 -44 28 -137 60 -184 63
-6 1 -16 15 -23 31 -20 44 -93 99 -165 125 -76 27 -238 35 -520 25z m391 -249
c75 -40 70 -169 -8 -201 -26 -11 -196 -17 -290 -11 -13 1 -16 18 -15 104 0 56
3 107 7 113 10 15 277 11 306 -5z m441 -29 c103 -50 157 -151 149 -276 -5 -75
-39 -146 -91 -192 -37 -31 -42 -54 -12 -54 7 0 36 -22 63 -48 138 -135 121
-387 -35 -510 -116 -91 -162 -98 -608 -97 -395 1 -409 3 -421 51 -8 31 -11
174 -4 175 3 1 133 2 290 3 272 2 288 3 352 26 171 60 267 201 256 376 -6 97
-43 171 -109 224 -27 21 -54 40 -60 42 -7 2 7 23 32 49 59 59 82 110 86 189 1
36 2 68 3 73 0 11 48 -3 109 -31z m-438 -412 c95 -27 134 -155 71 -239 -36
-49 -64 -56 -232 -56 l-155 0 -1 140 c0 77 2 146 4 153 5 15 258 17 313 2z"/>
</g>
</svg>
